<!DOCTYPE svg PUBLIC "-//W3C//DTD SVG 1.1//EN" "http://www.w3.org/Graphics/SVG/1.1/DTD/svg11.dtd">
<!-- Uploaded to: SVG Repo, www.svgrepo.com, Transformed by: SVG Repo Mixer Tools -->
<svg fill="#22c55e" width="800px" height="800px" viewBox="-51.2 -51.2 614.40 614.40" xmlns="http://www.w3.org/2000/svg" stroke="#22c55e">
<g id="SVGRepo_bgCarrier" stroke-width="0">
<path transform="translate(-51.2, -51.2), scale(19.2)" d="M16,29.123742628254387C18.029201701517938,28.056308002015747,17.984363901885118,24.714383335850304,20.025475373674563,23.66990251435762C22.101446924637294,22.607583037487487,24.901267958421272,24.706508060955727,26.918511631436303,23.536504422061785C28.878718405214443,22.3995822499986,30.15932180790965,19.995553805508823,30.26340598676704,17.73189104241752C30.367392200720776,15.47035885773817,29.108213002878973,13.209181772103591,27.464970336462773,11.651910281867428C25.956451985700546,10.22231460001754,23.46173918597963,10.656203391927692,21.675691512741203,9.593468647473632C20.317106256372377,8.78508274776902,19.655438021579457,7.220797871721121,18.40102079919562,6.258675689329092C16.608586961764196,4.88390155143452,14.976835967608116,2.963093535031832,12.72974093890523,2.7320374297853363C10.423149770748186,2.494863672154814,8.065900351298717,3.550917136242438,6.264357244101648,5.0107310426152285C4.438492450072954,6.490253129448096,2.83544609953103,8.585102801206688,2.6187030599633516,10.92514346459241C2.404426262692254,13.238557633898914,4.254907032081402,15.165994275526426,5.124175929648313,17.32056412779849C5.782619130332438,18.95258141680812,6.614110846230638,20.43810543391954,7.134946611282658,22.119104537427976C7.8967158164048525,24.577717092122345,6.884495363348858,27.92442738613407,8.90406623024004,29.520172205827265C10.790254796368028,31.01052626208106,13.872477008821162,30.242897864130786,16,29.123742628254387" fill="#22ec70" strokewidth="0"/>
</g>
<g id="SVGRepo_tracerCarrier" stroke-linecap="round" stroke-linejoin="round"/>
<g id="SVGRepo_iconCarrier"> <g id="Hacker_anonymous"> <path d="M475.3571,413.24a69.9,69.9,0,0,0-39.8845-57.4407l-39.9287-18.7987,21.5791-44.5621a89.4527,89.4527,0,0,0,.0025-77.9684L359.7988,96.0682C317.7933,9.3105,194.2088,9.31,152.2019,96.0666L94.87,214.4745a89.445,89.445,0,0,0,.0049,77.9692l21.581,44.5569L76.5256,355.8a69.898,69.898,0,0,0-39.8831,57.439l-3.612,43.3773a22.5157,22.5157,0,0,0,22.4381,24.3842H456.5337A22.5134,22.5134,0,0,0,478.97,456.6187ZM364,260.1205a107.9746,107.9746,0,0,1-98.1035,107.5V341.1249a9.8965,9.8965,0,0,0-19.793,0v26.4957A107.9746,107.9746,0,0,1,148,260.1205V203.44a28.8192,28.8192,0,0,1,28.8193-28.8193H335.1806A28.8193,28.8193,0,0,1,364,203.44Z"/> <path d="M321.8213,275.9979a9.91,9.91,0,0,0-12.3135,6.6709,13.5776,13.5776,0,0,1-26.0156,0,9.9026,9.9026,0,1,0-18.9844,5.6426,33.3877,33.3877,0,0,0,63.9844,0A9.9125,9.9125,0,0,0,321.8213,275.9979Z"/> <path d="M240.8213,275.9979a9.8908,9.8908,0,0,0-12.3135,6.6709,13.5776,13.5776,0,0,1-26.0156,0,9.9026,9.9026,0,1,0-18.9844,5.6426,33.3877,33.3877,0,0,0,63.9844,0A9.9125,9.9125,0,0,0,240.8213,275.9979Z"/> <path d="M319,227.4384H283a9.8965,9.8965,0,1,0,0,19.7929h36a9.8965,9.8965,0,1,0,0-19.7929Z"/> <path d="M193,247.2313h36a9.8965,9.8965,0,1,0,0-19.7929H193a9.8965,9.8965,0,1,0,0,19.7929Z"/> </g> </g>
</svg>