<!DOCTYPE svg PUBLIC "-//W3C//DTD SVG 1.1//EN" "http://www.w3.org/Graphics/SVG/1.1/DTD/svg11.dtd">
<!-- Uploaded to: SVG Repo, www.svgrepo.com, Transformed by: SVG Repo Mixer Tools -->
<svg fill="#3b27f6" width="800px" height="800px" viewBox="-51.2 -51.2 614.40 614.40" xmlns="http://www.w3.org/2000/svg" stroke="#3b27f6">
<g id="SVGRepo_bgCarrier" stroke-width="0">
<path transform="translate(-51.2, -51.2), scale(19.2)" d="M16,30.972937788814306C18.053237505824498,30.955744615863345,19.97094291501851,29.859896729373077,21.635660096123736,28.657899821118484C23.176909566806213,27.545051873349113,23.749170757073355,25.503268079752395,25.228615811372347,24.309482999830653C27.027318959382285,22.85808406138209,30.172144013580652,23.00867016496737,31.20134266853239,20.93921564219186C32.17907774315087,18.97324117991437,30.425128278412863,16.689421077568564,30.098083867556156,14.518231676389142C29.784423090488726,12.4358938282952,30.823306443037097,9.775525258920178,29.300651312951327,8.320865384070206C27.598852945096827,6.695062041021893,24.33934011825229,8.525442944901783,22.411684241594525,7.1750737300993706C20.533462686061345,5.859334443911105,21.145655473679458,2.326200765863665,19.144509810799622,1.206244464561733C17.327153409876924,0.18914721338227447,15.027757299392892,1.4140664804332688,13.005221701424254,1.910675845307873C11.021814347191302,2.3976777391002595,8.531624964508492,2.431791614949167,7.354900697315761,4.101041619107461C6.070066701094096,5.92365139552712,7.923428982053028,8.762063274990771,6.812403720591837,10.695538814878088C5.7047818204676854,12.623091612837905,1.910668130247637,12.301895439822177,1.3992703409612446,14.465401474865839C0.9215787678248657,16.486310878506778,3.357686374396306,18.08193970855641,4.6899186822542145,19.674868186131427C5.744884743782836,20.936273927736767,7.5363900329032765,21.442744785576046,8.403344708415876,22.840059147678925C9.507820322511105,24.620197927431352,8.892146830464984,27.221681470917588,10.322160840352485,28.752635548881706C11.724656925516076,30.254129300735805,13.945448279545353,30.990141966590265,16,30.972937788814306" fill="#3cc0ec" strokewidth="0"/>
</g>
<g id="SVGRepo_tracerCarrier" stroke-linecap="round" stroke-linejoin="round"/>
<g id="SVGRepo_iconCarrier"> <g id="Antivirus"> <path d="M249.1646,34.1932,69.1917,91.6015A22.5422,22.5422,0,0,0,53.5,113.0776v135.154A207.53,207.53,0,0,0,161.46,430.3155l83.7517,45.7981a22.4855,22.4855,0,0,0,21.576,0l83.7558-45.7983A207.5144,207.5144,0,0,0,458.5,248.2431V113.0155A22.4573,22.4573,0,0,0,442.8675,91.62L262.8354,34.1932A22.4922,22.4922,0,0,0,249.1646,34.1932Zm81.2919,234.0905c.2286.0758.4659.0417.69.1351l22.57,9.3494,1.1338-2.74a9.9026,9.9026,0,1,1,18.2988,7.5761l-4.9175,11.8719c-.0044.0066,0,.0132-.0044.02l-.0131.0231-4.9175,11.8685a9.9026,9.9026,0,0,1-18.2989-7.5761l1.1382-2.7466L323.57,286.7176c-.2285-.0945-.3691-.2856-.5845-.3933A76.7719,76.7719,0,0,1,294.32,315.003c.1055.2132.2944.3538.3867.5779l9.3472,22.5659,2.7466-1.1382a9.9026,9.9026,0,0,1,7.5762,18.2989l-11.8741,4.92c-.0088.0022-.0088.0088-.0175.011a.1557.1557,0,0,0-.022.0044l-11.87,4.9175a9.9026,9.9026,0,0,1-7.5762-18.2988l2.7378-1.1349-9.3472-22.5692c-.0923-.2219-.0571-.4549-.1318-.679a76.7627,76.7627,0,0,1-40.5484-.011c-.0747.2286-.0439.4637-.1362.69l-9.3472,22.5659,2.7466,1.1382A9.9026,9.9026,0,1,1,221.415,365.16l-11.87-4.9153c-.0132-.0044-.022-.0022-.0308-.0066s-.0131-.0121-.0263-.0153l-11.8653-4.9153a9.9026,9.9026,0,0,1,7.5762-18.2989l2.7466,1.1371,9.3472-22.5648c.0966-.2274.2856-.37.3955-.5867A76.7432,76.7432,0,0,1,189.01,286.3276c-.2154.1066-.356.2966-.58.39l-22.5659,9.3494,1.1382,2.7444a9.9026,9.9026,0,1,1-18.2989,7.5761l-9.8525-23.7832a9.9026,9.9026,0,1,1,18.2988-7.5761l1.1338,2.7422,22.57-9.3516c.2241-.0923.457-.0571.6856-.1318a76.7436,76.7436,0,0,1,.0088-40.5462c-.2286-.0758-.4659-.045-.6944-.1384l-22.5659-9.345-1.1382,2.7444a9.9026,9.9026,0,1,1-18.2988-7.5762l9.8525-23.792A9.9026,9.9026,0,0,1,167.002,197.21l-1.1382,2.7488,22.5659,9.345c.2285.0944.3735.2878.5889.3966a76.76,76.76,0,0,1,28.6347-28.66c-.1054-.2131-.268-.3768-.36-.6l-9.3516-22.5637-2.7422,1.1359a9.9026,9.9026,0,1,1-7.5762-18.2988l23.792-9.8525a9.9026,9.9026,0,0,1,7.5762,18.2988l-2.751,1.1382,9.3516,22.5659c.0923.2241.0571.4592.1318.6856a76.7639,76.7639,0,0,1,40.5484.01c.0747-.23.04-.4669.1362-.6954L285.76,150.296l-2.7422-1.136a9.9026,9.9026,0,1,1,7.5762-18.2988l23.7832,9.8525a9.9026,9.9026,0,1,1-7.5762,18.2988l-2.7422-1.1359L294.707,180.44c-.0923.2263-.2592.3922-.3691.6075A76.7537,76.7537,0,0,1,322.99,209.6936c.2154-.1066.356-.2978.58-.39l22.5659-9.3428-1.1382-2.751a9.9026,9.9026,0,0,1,18.2989-7.5762l4.9219,11.8905c.0043.0033.0087.0055.0087.01v.011l4.9219,11.8806a9.9026,9.9026,0,1,1-18.2988,7.5762l-1.1338-2.7422-22.57,9.3428c-.2241.0923-.457.0615-.6812.1362A76.7844,76.7844,0,0,1,330.4565,268.2837Z"/> </g> </g>
</svg>