<svg xmlns="http://www.w3.org/2000/svg" fill="none" viewBox="0 0 16 16" id="Amb--Streamline-Cryptocurrency-Black" height="16" width="16"><desc>Amb Streamline Icon: https://streamlinehq.com</desc><path fill="#22c54a" d="M8 15.840000000000002C3.6698666666666666 15.840000000000002 0.16 12.330133333333334 0.16 8S3.6698666666666666 0.16 8 0.16 15.840000000000002 3.6698666666666666 15.840000000000002 8 12.330133333333334 15.840000000000002 8 15.840000000000002Zm5.390012121212121 -7.832630303030304 -0.0004848484848484849 -0.006884848484848486v-0.011248484848484848c0 -0.003442424242424243 0 -0.00736969696969697 -0.0010181818181818183 -0.010812121212121212v-0.0004848484848484849c-0.0025696969696969696 -0.032048484848484854 -0.011248484848484848 -0.06327272727272727 -0.025454545454545455 -0.09212121212121213l-0.0014545454545454547 -0.0024242424242424242 -0.002957575757575758 -0.005866666666666667c-0.06812121212121212 -0.12499393939393938 -1.7101090909090908 -3.0625454545454542 -5.358642424242424 -3.0625454545454542S2.7094787878787883 7.752048484848485 2.6408727272727273 7.877478787878788c-0.0010181818181818183 0.001987878787878788 -0.001987878787878788 0.003927272727272727 -0.002957575757575758 0.005915151515151516l-0.0009696969696969698 0.0019393939393939396c-0.014642424242424243 0.0288969696969697 -0.023612121212121213 0.060315151515151516 -0.026472727272727276 0.09260606060606061l-0.0004848484848484849 0.011296969696969698v0.022012121212121216c0.0017454545454545455 0.03917575757575757 0.012460606060606061 0.07738181818181818 0.031369696969696964 0.11175757575757576 0.06812121212121212 0.12494545454545454 1.711078787878788 3.0620121212121214 5.359127272727273 3.0620121212121214 3.6480484848484847 0 5.290521212121212 -2.9370666666666665 5.358642424242424 -3.0620121212121214 0.018715151515151518 -0.03442424242424242 0.029284848484848486 -0.07263030303030303 0.030884848484848487 -0.11175757575757576v-0.003878787878787879ZM12.846109090909092 8c-0.27345454545454545 0.4253090909090909 -1.2960484848484848 1.8360242424242426 -3.1472969696969697 2.4206060606060604l0.04315151515151515 -0.031854545454545455c0.019200000000000002 -0.014157575757575758 0.03432727272727273 -0.033115151515151514 0.04387878787878788 -0.055030303030303034 0.009551515151515151 -0.021866666666666666 0.013187878787878788 -0.04586666666666667 0.01056969696969697 -0.06957575757575757 -0.0026181818181818185 -0.02370909090909091 -0.011442424242424242 -0.046303030303030304 -0.02555151515151515 -0.06555151515151515 -0.01410909090909091 -0.019200000000000002 -0.033018181818181815 -0.03447272727272727 -0.05488484848484848 -0.04407272727272727 -0.02172121212121212 -0.00930909090909091 -0.04552727272727273 -0.012606060606060605 -0.0689939393939394 -0.009600000000000001 -0.02341818181818182 0.0030545454545454548 -0.04562424242424243 0.012266666666666667 -0.06429090909090909 0.026763636363636364 -0.32533333333333336 0.24499393939393938 -0.7016727272727273 0.4115878787878788 -1.1000242424242426 0.486060606060606 -0.32092121212121216 0.026327272727272727 -0.6434424242424243 0.026327272727272727 -0.9643151515151515 0 -1.0701575757575756 -0.19743030303030304 -1.912 -1.0387878787878788 -2.1227151515151514 -2.12169696969697 0.05299393939393939 -0.037866666666666667 0.09187878787878788 -0.09221818181818182 0.11064242424242424 -0.15452121212121211 0.018812121212121214 -0.06235151515151515 0.016436363636363638 -0.12911515151515152 -0.006739393939393939 -0.1899151515151515 -0.04804848484848485 -0.12547878787878786 -0.17396363636363638 -0.2018909090909091 -0.3057939393939394 -0.18477575757575757 -0.13178181818181817 0.017163636363636364 -0.23418181818181819 0.12349090909090908 -0.2494060606060606 0.257260606060606 -0.015175757575757577 0.13376969696969696 0.06225454545454545 0.2602181818181818 0.18671515151515153 0.3067636363636364 0.13803636363636365 0.7415757575757577 0.5541818181818182 1.4023757575757576 1.163248484848485 1.8472727272727274 -1.8467878787878789 -0.5855515151515152 -2.8674909090909093 -1.9933090909090911 -3.140412121212121 -2.4181333333333335 0.2758787878787879 -0.4282666666666667 1.3107393939393939 -1.8556121212121213 3.187442424242424 -2.4323393939393942 -0.011975757575757575 0.00833939393939394 -0.0239030303030303 0.016872727272727272 -0.03573333333333333 0.025454545454545455 -0.023030303030303033 0.01692121212121212 -0.04014545454545455 0.04063030303030303 -0.04892121212121212 0.06783030303030303 -0.008824242424242425 0.027151515151515152 -0.008824242424242425 0.05638787878787879 -0.00009696969696969698 0.0835878787878788 0.0063030303030303025 0.019975757575757577 0.01730909090909091 0.03815757575757576 0.032 0.05309090909090909 0.014642424242424243 0.014981818181818183 0.032678787878787884 0.02623030303030303 0.05250909090909091 0.03292121212121212 0.01987878787878788 0.006642424242424243 0.041018181818181815 0.008533333333333334 0.061769696969696974 0.005575757575757576 0.020703030303030303 -0.0030545454545454548 0.04043636363636364 -0.010957575757575758 0.05755151515151515 -0.02298181818181818 0.3516121212121212 -0.2543030303030303 0.760630303030303 -0.41779393939393944 1.190690909090909 -0.4757818181818182 0.00833939393939394 -0.0010666666666666667 0.016533333333333334 -0.002812121212121212 0.024533333333333334 -0.00543030303030303 0.21624242424242426 -0.012315151515151515 0.43301818181818186 -0.012315151515151515 0.6492121212121212 0 0.008 0.0026181818181818185 0.016193939393939392 0.004363636363636364 0.024533333333333334 0.00543030303030303 1.1034666666666668 0.14695757575757576 1.9991757575757578 0.987830303030303 2.241260606060606 2.077090909090909 -0.04756363636363637 0.044412121212121215 -0.07903030303030303 0.10327272727272728 -0.0896 0.16741818181818183 -0.010521212121212122 0.06419393939393939 0.00043636363636363637 0.13003636363636364 0.03127272727272727 0.18734545454545456 0.030012121212121212 0.057939393939393936 0.07893333333333334 0.1039030303030303 0.13866666666666666 0.13027878787878788 0.05973333333333334 0.026375757575757577 0.12669090909090908 0.03146666666666667 0.18967272727272727 0.014545454545454545 0.06307878787878787 -0.01692121212121212 0.11844848484848484 -0.054933333333333334 0.1568969696969697 -0.10763636363636364 0.03854545454545455 -0.05270303030303031 0.057842424242424244 -0.11699393939393939 0.05473939393939394 -0.18220606060606062 -0.0007757575757575758 -0.06492121212121212 -0.023272727272727275 -0.1276121212121212 -0.06385454545454546 -0.17823030303030302s-0.09692121212121212 -0.08620606060606062 -0.16004848484848486 -0.10109090909090909c-0.1632969696969697 -0.7206303030303031 -0.5889939393939395 -1.3547151515151514 -1.1941333333333333 -1.7787151515151516 1.8796121212121213 0.5752727272727274 2.916460606060606 2.0055757575757576 3.192339393939394 2.433842424242424h-0.0004848484848484849Zm-2.4843151515151516 0.00833939393939394c0 -1.3220363636363637 -1.0593939393939396 -2.3966060606060604 -2.3617939393939396 -2.3966060606060604s-2.3617939393939396 1.0750545454545455 -2.3617939393939396 2.3966060606060604 1.0598787878787879 2.397575757575758 2.3617939393939396 2.397575757575758 2.3617939393939396 -1.0760727272727273 2.3617939393939396 -2.397575757575758Zm-0.26656969696969696 0c0 1.172557575757576 -0.939830303030303 2.1265939393939393 -2.0952242424242424 2.1265939393939393 -1.1554424242424244 0 -2.095709090909091 -0.9540363636363637 -2.095709090909091 -2.1265939393939393s0.9408 -2.1261090909090914 2.095709090909091 -2.1261090909090914 2.0952242424242424 0.9535515151515151 2.0952242424242424 2.1261090909090914Zm-1.3230060606060605 -0.6580848484848485c0 -0.3650424242424243 -0.2543030303030303 -0.6791272727272728 -0.6075636363636364 -0.7496727272727273 -0.35282424242424243 -0.07107878787878788 -0.7056 0.12101818181818182 -0.8428121212121212 0.4586181818181818 -0.1372121212121212 0.3376 -0.019587878787878786 0.726690909090909 0.28077575757575757 0.9280484848484848l-0.20974545454545454 1.2872242424242424c-0.0047515151515151515 0.022836363636363637 -0.004266666666666667 0.04644848484848485 0.0014545454545454547 0.06909090909090909 0.005672727272727273 0.02264242424242424 0.016436363636363638 0.043684848484848486 0.03141818181818182 0.061575757575757575 0.015030303030303031 0.017842424242424243 0.0338909090909091 0.032145454545454547 0.055127272727272726 0.04164848484848485 0.021333333333333333 0.009551515151515151 0.044509090909090915 0.014157575757575758 0.06783030303030303 0.013381818181818182h0.9408c0.1024 0 0.1714909090909091 -0.0832969696969697 0.15486060606060606 -0.1856969696969697l-0.21023030303030302 -1.286739393939394c0.2112 -0.14162424242424243 0.3380848484848485 -0.3807030303030303 0.3380848484848485 -0.6369939393939394v-0.0004848484848484849Zm2.1300363636363637 1.0010666666666668c0.002278787878787879 -0.018812121212121214 0.0005333333333333334 -0.037866666666666667 -0.005042424242424242 -0.055951515151515155s-0.014884848484848487 -0.034763636363636365 -0.027393939393939394 -0.049018181818181815 -0.02783030303030303 -0.025696969696969697 -0.045042424242424245 -0.03364848484848485c-0.017163636363636364 -0.007854545454545454 -0.03587878787878788 -0.012072727272727273 -0.05478787878787879 -0.012266666666666667 -0.03292121212121212 0.0002909090909090909 -0.06448484848484849 0.012557575757575757 -0.08892121212121212 0.03461818181818182 -0.024339393939393942 0.022060606060606062 -0.03980606060606061 0.05221818181818182 -0.043393939393939394 0.0848969696969697 -0.062400000000000004 0.5577212121212122 -0.29760000000000003 1.0820363636363637 -0.6727757575757576 1.4994424242424242 -0.02312727272727273 -0.005090909090909091 -0.04717575757575758 -0.003927272727272727 -0.06972121212121213 0.0032 -0.022545454545454546 0.007175757575757577 -0.04281212121212122 0.02016969696969697 -0.05881212121212122 0.037575757575757575 -0.01595151515151515 0.017454545454545455 -0.027103030303030302 0.03883636363636364 -0.032242424242424246 0.06191515151515152 -0.005187878787878787 0.02312727272727273 -0.00416969696969697 0.047127272727272726 0.0029090909090909093 0.06972121212121213 0.007030303030303031 0.022593939393939395 0.01987878787878788 0.04295757575757576 0.03728484848484848 0.05900606060606061 0.017357575757575756 0.016048484848484847 0.03864242424242424 0.027296969696969698 0.06172121212121212 0.032581818181818184 0.023078787878787883 0.005236363636363637 0.047127272727272726 0.004363636363636364 0.06972121212121213 -0.0026181818181818185 0.02264242424242424 -0.006933333333333334 0.043054545454545456 -0.019684848484848486 0.0592 -0.0369939393939394 0.023078787878787883 0.004993939393939394 0.04703030303030303 0.003684848484848485 0.06943030303030302 -0.0037333333333333337 0.0224 -0.00736969696969697 0.04242424242424242 -0.020654545454545453 0.05798787878787879 -0.038400000000000004 0.41275151515151515 -0.45944242424242426 0.6714666666666667 -1.0365090909090908 0.7398787878787879 -1.6503272727272726Zm-4.836266666666667 -2.385309090909091c-0.012654545454545457 -0.012169696969696971 -0.02763636363636364 -0.02172121212121212 -0.04402424242424243 -0.028024242424242424 -0.016436363636363638 -0.0063030303030303025 -0.0338909090909091 -0.00930909090909091 -0.05144242424242424 -0.008824242424242425 -0.017551515151515155 0.0004848484848484849 -0.034860606060606064 0.004509090909090909 -0.05086060606060606 0.011781818181818181 -0.016 0.007224242424242425 -0.030400000000000003 0.017551515151515155 -0.04232727272727273 0.030448484848484846 -0.413769696969697 0.4424727272727273 -0.6817454545454545 1.0012121212121212 -0.7678545454545456 1.6008242424242425 -0.0028606060606060604 0.019103030303030302 -0.0016 0.03869090909090909 0.003684848484848485 0.05726060606060606 0.005333333333333333 0.01861818181818182 0.014545454545454545 0.035830303030303025 0.027103030303030302 0.05056969696969697 0.012557575757575757 0.014690909090909091 0.028072727272727274 0.026569696969696972 0.04562424242424243 0.034763636363636365 0.017503030303030305 0.008193939393939394 0.036557575757575754 0.012557575757575757 0.0559030303030303 0.012751515151515153 0.06613333333333334 0 0.12198787878787878 -0.049018181818181815 0.13178181818181817 -0.11563636363636363 0.07820606060606061 -0.5446787878787879 0.3216 -1.0522666666666667 0.6973090909090909 -1.4543030303030302 0.024436363636363638 -0.026133333333333335 0.03762424242424243 -0.06084848484848485 0.03670303030303031 -0.09653333333333333 -0.0009696969696969698 -0.035781818181818185 -0.015903030303030304 -0.06972121212121213 -0.041600000000000005 -0.0945939393939394v-0.0004848484848484849Z" stroke-width="0.4848"></path></svg>