<svg xmlns="http://www.w3.org/2000/svg" fill="none" viewBox="0 0 30 30" id="Amb--Streamline-Cryptocurrency-Black" height="30" width="30"><desc>Amb Streamline Icon: https://streamlinehq.com</desc><path fill="#22c54a" d="M15 29.7C6.880999999999999 29.7 0.3 23.119 0.3 15S6.880999999999999 0.3 15 0.3 29.7 6.880999999999999 29.7 15 23.119 29.7 15 29.7Zm10.106272727272726 -14.686181818181819 -0.0009090909090909091 -0.01290909090909091v-0.021090909090909087c0 -0.006454545454545455 0 -0.013818181818181818 -0.001909090909090909 -0.020272727272727272v-0.0009090909090909091c-0.004818181818181818 -0.0600909090909091 -0.021090909090909087 -0.11863636363636364 -0.04772727272727272 -0.17272727272727273l-0.002727272727272727 -0.004545454545454545 -0.005545454545454545 -0.011c-0.12772727272727274 -0.23436363636363633 -3.2064545454545454 -5.742272727272726 -10.047454545454544 -5.742272727272726S5.080272727272727 14.535090909090908 4.951636363636363 14.770272727272726c-0.001909090909090909 0.0037272727272727275 -0.0037272727272727275 0.007363636363636363 -0.005545454545454545 0.01109090909090909l-0.0018181818181818182 0.0036363636363636364c-0.027454545454545454 0.05418181818181818 -0.04427272727272727 0.11309090909090909 -0.04963636363636364 0.17363636363636364l-0.0009090909090909091 0.021181818181818184v0.04127272727272727c0.0032727272727272726 0.07345454545454545 0.023363636363636364 0.14509090909090908 0.05881818181818181 0.20954545454545453 0.12772727272727274 0.23427272727272724 3.2082727272727274 5.741272727272728 10.048363636363636 5.741272727272728 6.840090909090908 0 9.919727272727272 -5.507 10.047454545454544 -5.741272727272728 0.03509090909090909 -0.06454545454545453 0.05490909090909091 -0.13618181818181815 0.05790909090909091 -0.20954545454545453v-0.007272727272727273ZM24.086454545454547 15c-0.5127272727272727 0.7974545454545454 -2.4300909090909086 3.4425454545454546 -5.901181818181818 4.538636363636363l0.0809090909090909 -0.05972727272727272c0.036000000000000004 -0.026545454545454546 0.06436363636363636 -0.062090909090909085 0.08227272727272726 -0.10318181818181818 0.017909090909090906 -0.041 0.024727272727272726 -0.08600000000000001 0.019818181818181818 -0.13045454545454543 -0.004909090909090909 -0.044454545454545455 -0.021454545454545452 -0.08681818181818182 -0.0479090909090909 -0.1229090909090909 -0.026454545454545453 -0.036000000000000004 -0.0619090909090909 -0.06463636363636363 -0.1029090909090909 -0.08263636363636363 -0.04072727272727272 -0.017454545454545452 -0.08536363636363636 -0.023636363636363636 -0.12936363636363638 -0.018000000000000002 -0.04390909090909091 0.0057272727272727275 -0.08554545454545455 0.023 -0.12054545454545454 0.05018181818181818 -0.61 0.4593636363636363 -1.3156363636363637 0.7717272727272727 -2.0625454545454547 0.9113636363636363 -0.6017272727272728 0.04936363636363636 -1.2064545454545454 0.04936363636363636 -1.808090909090909 0 -2.006545454545454 -0.37018181818181817 -3.5849999999999995 -1.9477272727272728 -3.980090909090909 -3.9781818181818185 0.09936363636363635 -0.071 0.17227272727272727 -0.1729090909090909 0.20745454545454545 -0.2897272727272727 0.035272727272727275 -0.1169090909090909 0.030818181818181817 -0.24209090909090908 -0.012636363636363635 -0.35609090909090907 -0.09009090909090908 -0.23527272727272724 -0.3261818181818182 -0.3785454545454545 -0.5733636363636364 -0.34645454545454546 -0.24709090909090908 0.03218181818181818 -0.4390909090909091 0.23154545454545453 -0.4676363636363636 0.48236363636363633 -0.028454545454545455 0.2508181818181818 0.11672727272727271 0.48790909090909085 0.35009090909090906 0.5751818181818182 0.25881818181818184 1.3904545454545454 1.039090909090909 2.629454545454545 2.181090909090909 3.4636363636363634 -3.462727272727273 -1.097909090909091 -5.376545454545455 -3.7374545454545456 -5.888272727272727 -4.534 0.5172727272727272 -0.8029999999999999 2.457636363636363 -3.4792727272727273 5.976454545454545 -4.560636363636363 -0.022454545454545453 0.015636363636363636 -0.04481818181818181 0.031636363636363636 -0.067 0.04772727272727272 -0.04318181818181818 0.03172727272727273 -0.07527272727272727 0.07618181818181818 -0.09172727272727273 0.12718181818181817 -0.016545454545454547 0.05090909090909091 -0.016545454545454547 0.10572727272727273 -0.00018181818181818183 0.15672727272727272 0.011818181818181818 0.037454545454545456 0.03245454545454546 0.07154545454545455 0.06 0.09954545454545455 0.027454545454545454 0.02809090909090909 0.06127272727272727 0.04918181818181818 0.09845454545454545 0.06172727272727273 0.03727272727272727 0.012454545454545454 0.0769090909090909 0.016 0.11581818181818182 0.010454545454545454 0.03881818181818182 -0.0057272727272727275 0.07581818181818181 -0.020545454545454544 0.1079090909090909 -0.04309090909090909 0.6592727272727272 -0.47681818181818175 1.4261818181818182 -0.7833636363636364 2.2325454545454546 -0.892090909090909 0.015636363636363636 -0.002 0.030999999999999996 -0.005272727272727272 0.046 -0.01018181818181818 0.40545454545454546 -0.02309090909090909 0.8119090909090909 -0.02309090909090909 1.2172727272727273 0 0.015 0.004909090909090909 0.030363636363636363 0.00818181818181818 0.046 0.01018181818181818 2.069 0.27554545454545454 3.7484545454545457 1.852181818181818 4.2023636363636365 3.894545454545454 -0.08918181818181818 0.08327272727272728 -0.1481818181818182 0.19363636363636363 -0.16799999999999998 0.3139090909090909 -0.01972727272727273 0.12036363636363635 0.0008181818181818182 0.2438181818181818 0.05863636363636364 0.3512727272727273 0.056272727272727266 0.10863636363636363 0.148 0.1948181818181818 0.25999999999999995 0.24427272727272725 0.112 0.04945454545454545 0.2375454545454545 0.059 0.35563636363636364 0.02727272727272727 0.11827272727272727 -0.03172727272727273 0.22209090909090906 -0.103 0.29418181818181816 -0.2018181818181818 0.07227272727272727 -0.09881818181818182 0.10845454545454546 -0.21936363636363634 0.10263636363636364 -0.3416363636363636 -0.0014545454545454547 -0.12172727272727271 -0.04363636363636363 -0.23927272727272725 -0.11972727272727274 -0.33418181818181814s-0.1817272727272727 -0.16163636363636363 -0.3000909090909091 -0.18954545454545452c-0.30618181818181817 -1.351181818181818 -1.1043636363636364 -2.540090909090909 -2.239 -3.335090909090909 3.5242727272727272 1.0786363636363636 5.4683636363636365 3.7604545454545453 5.985636363636363 4.563454545454546h-0.0009090909090909091Zm-4.658090909090909 0.015636363636363636c0 -2.478818181818182 -1.9863636363636363 -4.493636363636363 -4.4283636363636365 -4.493636363636363s-4.4283636363636365 2.0157272727272724 -4.4283636363636365 4.493636363636363 1.987272727272727 4.495454545454545 4.4283636363636365 4.495454545454545 4.4283636363636365 -2.0176363636363632 4.4283636363636365 -4.495454545454545Zm-0.4998181818181818 0c0 2.1985454545454544 -1.762181818181818 3.987363636363636 -3.9285454545454543 3.987363636363636 -2.1664545454545454 0 -3.9294545454545453 -1.7888181818181819 -3.9294545454545453 -3.987363636363636s1.7639999999999998 -3.9864545454545457 3.9294545454545453 -3.9864545454545457 3.9285454545454543 1.7879090909090907 3.9285454545454543 3.9864545454545457Zm-2.4806363636363633 -1.2339090909090908c0 -0.6844545454545454 -0.47681818181818175 -1.2733636363636365 -1.1391818181818183 -1.4056363636363636 -0.6615454545454545 -0.13327272727272726 -1.323 0.2269090909090909 -1.5802727272727273 0.8599090909090908 -0.25727272727272726 0.633 -0.036727272727272726 1.3625454545454545 0.5264545454545454 1.740090909090909l-0.3932727272727272 2.4135454545454547c-0.008909090909090908 0.04281818181818182 -0.008 0.08709090909090908 0.002727272727272727 0.12954545454545452 0.010636363636363637 0.04245454545454545 0.030818181818181817 0.0819090909090909 0.058909090909090904 0.11545454545454545 0.02818181818181818 0.03345454545454545 0.06354545454545454 0.06027272727272727 0.10336363636363635 0.07809090909090909 0.039999999999999994 0.017909090909090906 0.08345454545454546 0.026545454545454546 0.12718181818181817 0.02509090909090909h1.7639999999999998c0.192 0 0.3215454545454545 -0.15618181818181817 0.2903636363636364 -0.3481818181818182l-0.39418181818181813 -2.4126363636363637c0.39599999999999996 -0.2655454545454546 0.6339090909090909 -0.7138181818181818 0.6339090909090909 -1.1943636363636363v-0.0009090909090909091Zm3.993818181818182 1.8770000000000002c0.004272727272727273 -0.035272727272727275 0.001 -0.071 -0.009454545454545453 -0.10490909090909091s-0.02790909090909091 -0.06518181818181817 -0.05136363636363636 -0.0919090909090909 -0.052181818181818176 -0.04818181818181818 -0.08445454545454545 -0.06309090909090909c-0.03218181818181818 -0.014727272727272726 -0.06727272727272726 -0.022636363636363635 -0.10272727272727272 -0.023 -0.06172727272727273 0.0005454545454545454 -0.12090909090909091 0.023545454545454543 -0.16672727272727272 0.06490909090909092 -0.045636363636363635 0.04136363636363636 -0.07463636363636364 0.0979090909090909 -0.08136363636363636 0.15918181818181817 -0.117 1.0457272727272728 -0.5579999999999999 2.0288181818181816 -1.2614545454545454 2.8114545454545454 -0.04336363636363636 -0.009545454545454546 -0.08845454545454545 -0.007363636363636363 -0.13072727272727272 0.006 -0.042272727272727274 0.013454545454545455 -0.08027272727272727 0.03781818181818181 -0.11027272727272727 0.07045454545454545 -0.029909090909090906 0.03272727272727272 -0.05081818181818182 0.07281818181818182 -0.060454545454545455 0.11609090909090909 -0.009727272727272727 0.04336363636363636 -0.007818181818181818 0.08836363636363635 0.005454545454545454 0.13072727272727272 0.013181818181818182 0.04236363636363637 0.03727272727272727 0.08054545454545455 0.0699090909090909 0.11063636363636363 0.032545454545454544 0.03009090909090909 0.07245454545454545 0.05118181818181818 0.11572727272727272 0.061090909090909085 0.043272727272727275 0.009818181818181818 0.08836363636363635 0.00818181818181818 0.13072727272727272 -0.004909090909090909 0.04245454545454545 -0.013 0.08072727272727273 -0.036909090909090905 0.111 -0.06936363636363636 0.043272727272727275 0.009363636363636364 0.08818181818181818 0.006909090909090909 0.13018181818181818 -0.007 0.041999999999999996 -0.013818181818181818 0.07954545454545454 -0.03872727272727273 0.10872727272727273 -0.07200000000000001 0.7739090909090909 -0.8614545454545455 1.259 -1.9434545454545453 1.3872727272727272 -3.094363636363636Zm-9.068 -4.4724545454545455c-0.02372727272727273 -0.022818181818181817 -0.05181818181818182 -0.04072727272727272 -0.08254545454545455 -0.05254545454545454 -0.030818181818181817 -0.011818181818181818 -0.06354545454545454 -0.017454545454545452 -0.09645454545454545 -0.016545454545454547 -0.03290909090909091 0.0009090909090909091 -0.06536363636363636 0.008454545454545454 -0.09536363636363636 0.022090909090909088 -0.03 0.013545454545454545 -0.057 0.03290909090909091 -0.07936363636363636 0.05709090909090908 -0.7758181818181819 0.8296363636363636 -1.2782727272727272 1.8772727272727272 -1.4397272727272727 3.0015454545454543 -0.005363636363636363 0.03581818181818181 -0.003 0.07254545454545454 0.006909090909090909 0.10736363636363636 0.009999999999999998 0.034909090909090904 0.02727272727272727 0.06718181818181818 0.05081818181818182 0.09481818181818182 0.023545454545454543 0.027545454545454547 0.052636363636363634 0.04981818181818182 0.08554545454545455 0.06518181818181817 0.032818181818181816 0.015363636363636362 0.06854545454545453 0.023545454545454543 0.10481818181818181 0.023909090909090908 0.12399999999999999 0 0.22872727272727272 -0.0919090909090909 0.24709090909090908 -0.2168181818181818 0.14663636363636362 -1.021272727272727 0.603 -1.973 1.3074545454545454 -2.7268181818181816 0.04581818181818182 -0.049 0.07054545454545455 -0.11409090909090909 0.06881818181818182 -0.181 -0.0018181818181818182 -0.06709090909090909 -0.02981818181818182 -0.13072727272727272 -0.078 -0.17736363636363636v-0.0009090909090909091Z" stroke-width="0.9091"></path></svg>