<!DOCTYPE svg PUBLIC "-//W3C//DTD SVG 1.1//EN" "http://www.w3.org/Graphics/SVG/1.1/DTD/svg11.dtd">
<!-- Uploaded to: SVG Repo, www.svgrepo.com, Transformed by: SVG Repo Mixer Tools -->
<svg fill="#ef4444" width="800px" height="800px" viewBox="-51.2 -51.2 614.40 614.40" xmlns="http://www.w3.org/2000/svg" stroke="#ef4444">
<g id="SVGRepo_bgCarrier" stroke-width="0">
<path transform="translate(-51.2, -51.2), scale(19.2)" d="M16,31.162588993708294C18.09103000870078,30.916451780174143,19.394451673067227,28.777279636152695,21.22813569016775,27.74258501907787C22.891582115891023,26.803950528927388,25.00872872906691,26.678799251226987,26.352186718829522,25.321150788960487C27.704914871991605,23.954134245830907,28.07926745413739,21.945199358921055,28.74890959606418,20.14237183325396C29.439230671446925,18.283871959474848,30.422605070381724,16.471066712456814,30.37565881058049,14.489057374273656C30.327763279704037,12.466971059915641,29.526008149737198,10.525854796763563,28.480123989141784,8.794597055349088C27.442827991215132,7.0775553463261485,26.132195858458367,5.426670072872935,24.34751273923415,4.510634384815315C22.61088003472309,3.6192618396031033,20.55720801581402,3.842464822199195,18.60854728224231,3.7277499139646633C16.862698677779832,3.6249742696454925,15.128432817505608,3.488337751823944,13.421139276889756,3.8674141939041515C11.721298490361391,4.244835874552903,9.713827838594595,4.526717706479987,8.68458963907717,5.931201438398311C7.59563943051304,7.417167324151945,8.3499841273499,9.550561411666074,7.940175935926485,11.346658406986126C7.647821568365541,12.627981748330402,7.294760664196272,13.890114313951832,6.612359533859854,15.013319227857215C5.418527423030149,16.978319040505383,2.356378619877302,18.109557341683978,2.435319220416112,20.40743195839874C2.5031125273287573,22.380821039232153,5.607166037653878,22.700727673919292,6.926906913243988,24.16944970960588C8.248194879403268,25.639893481772837,8.627802662358723,27.834658477820668,10.193560898319916,29.041475747808803C11.843650516739746,30.31329192146905,13.930943407142301,31.406139694698417,16,31.162588993708294" fill="#ff7575" strokewidth="0"/>
</g>
<g id="SVGRepo_tracerCarrier" stroke-linecap="round" stroke-linejoin="round"/>
<g id="SVGRepo_iconCarrier"> <g id="Cyber_security"> <path d="M80.9175,377.0605H202V439.16H139a9.8965,9.8965,0,1,0,0,19.7929H373a9.8965,9.8965,0,1,0,0-19.7929H310V377.0605H431.0869A49.9019,49.9019,0,0,0,480.64,332.9351H31.36A49.9094,49.9094,0,0,0,80.9175,377.0605Z"/> <path d="M431.0869,53.0474H80.9175A49.9181,49.9181,0,0,0,31,102.9637V313.1421H481V102.9637A49.9144,49.9144,0,0,0,431.0869,53.0474ZM337,179.5835a83.01,83.01,0,0,1-43.1807,72.8317L256,273.0947l-37.8149-20.6795A83.0054,83.0054,0,0,1,175,179.5835V118.9324l81-25.8377,81,25.8377Z"/> <path d="M223.6035,165.0991a32.3247,32.3247,0,0,0,22.5,30.6881V223.59a9.8965,9.8965,0,1,0,19.793,0V195.7872a32.3292,32.3292,0,1,0-42.293-30.6881Z"/> </g> </g>
</svg>